<svg width="17" height="17" fill="none" xmlns="http://www.w3.org/2000/svg"><g clip-path="url(#clip0)" stroke="#0275B1" stroke-linecap="round" stroke-linejoin="round"><path d="M8.579 10.152a2 2 0 100-4 2 2 0 000 4z"/><path d="M13.512 10.152a1.1 1.1 0 00.22 1.213l.04.04a1.335 1.335 0 11-1.887 1.887l-.04-.04a1.1 1.1 0 00-1.213-.22 1.1 1.1 0 00-.667 1.007v.113a1.333 1.333 0 11-2.666 0v-.06a1.1 1.1 0 00-.72-1.007 1.1 1.1 0 00-1.214.22l-.04.04A1.334 1.334 0 113.44 11.46l.04-.04a1.1 1.1 0 00.22-1.214 1.1 1.1 0 00-1.007-.666H2.58a1.333 1.333 0 110-2.667h.06a1.1 1.1 0 001.006-.72 1.1 1.1 0 00-.22-1.213l-.04-.04a1.333 1.333 0 111.887-1.887l.04.04a1.1 1.1 0 001.213.22h.054a1.1 1.1 0 00.666-1.007v-.113a1.333 1.333 0 012.667 0v.06a1.1 1.1 0 00.667 1.007A1.1 1.1 0 0011.793 3l.04-.04a1.332 1.332 0 012.278.943 1.333 1.333 0 01-.391.943l-.04.04a1.1 1.1 0 00-.22 1.214v.053a1.1 1.1 0 001.006.667h.114a1.333 1.333 0 110 2.666h-.06a1.1 1.1 0 00-1.007.667v0z"/></g><defs><clipPath id="clip0"><path fill="#fff" transform="translate(.579 .152)" d="M0 0h16v16H0z"/></clipPath></defs></svg>