<svg width="120" height="120" fill="none" xmlns="http://www.w3.org/2000/svg"><path fill-rule="evenodd" clip-rule="evenodd" d="M6.59 6.59C0 13.18 0 23.787 0 45v30c0 21.213 0 31.82 6.59 38.41C13.18 120 23.787 120 45 120h30c21.213 0 31.82 0 38.41-6.59C120 106.82 120 96.213 120 75V45c0-21.213 0-31.82-6.59-38.41C106.82 0 96.213 0 75 0H45C23.787 0 13.18 0 6.59 6.59zm23.36 31.001c-4.94 0-8.95-4.05-8.95-9.045s4.01-9.046 8.95-9.046c4.942 0 8.952 4.051 8.952 9.046 0 4.994-4.005 9.045-8.951 9.045zM22.28 100.5V44.093h15.344V100.5H22.279zm61.377 0H99V65.84c0-26.936-28.658-25.957-35.803-12.696v-9.05H47.852V100.5h15.345V71.763c0-15.963 20.459-17.27 20.459 0V100.5z" fill="url(#paint0_linear)"/><defs><linearGradient id="paint0_linear" x1="60" y1="0" x2="60" y2="120" gradientUnits="userSpaceOnUse"><stop stop-color="#0077B5"/><stop offset="1" stop-color="#0E6795"/></linearGradient></defs></svg>