<svg width="24" height="24" fill="none" xmlns="http://www.w3.org/2000/svg"><path d="M21 11.438l-8.155 8.026A5.372 5.372 0 019.077 21a5.372 5.372 0 01-3.767-1.536 5.201 5.201 0 01-1.56-3.707 5.2 5.2 0 011.56-3.707l8.156-8.026A3.58 3.58 0 0115.977 3a3.58 3.58 0 012.512 1.024 3.467 3.467 0 011.04 2.471 3.47 3.47 0 01-1.04 2.472l-8.165 8.026a1.79 1.79 0 01-1.255.512 1.79 1.79 0 01-1.256-.512 1.733 1.733 0 01-.52-1.236c0-.463.187-.908.52-1.236l7.534-7.406" stroke="#000" stroke-width="2" stroke-linecap="round" stroke-linejoin="round" opacity=".15"/></svg>