<svg width="14" height="16" fill="none" xmlns="http://www.w3.org/2000/svg"><path d="M10.182 0H.636a.661.661 0 00-.45.174A.573.573 0 000 .593v14.814c0 .158.067.308.186.42a.66.66 0 00.45.173h12.728a.66.66 0 00.45-.174.572.572 0 00.186-.419V3.556L10.182 0z" fill="#CAEDFF"/><path d="M10.182 0v3.556H14L10.182 0z" fill="#65C3E8"/><path d="M7 7.704c-.503 0-.996-.139-1.414-.4a2.415 2.415 0 01-.938-1.063 2.22 2.22 0 01-.145-1.37c.099-.46.341-.882.697-1.213.356-.332.81-.558 1.303-.65a2.72 2.72 0 011.471.136c.465.18.863.483 1.142.873.28.39.43.848.43 1.317A2.29 2.29 0 018.8 7.01a2.644 2.644 0 01-1.8.694zm1.91 1.185H5.09V16h3.82V8.89zM14 15.408v-4.741h-3.182V16h2.546c.168 0 .33-.062.45-.173a.573.573 0 00.186-.42zM3.182 12.445H0v2.963c0 .157.067.308.186.419.12.11.282.173.45.173h2.546v-3.555z" fill="url(#paint0_linear)"/><defs><linearGradient id="paint0_linear" x1="15.941" y1="22.797" x2="4.064" y2="7.17" gradientUnits="userSpaceOnUse"><stop stop-color="#665ED0"/><stop offset="1" stop-color="#0073B1"/></linearGradient></defs></svg>