<svg width="16" height="17" fill="none" xmlns="http://www.w3.org/2000/svg"><path d="M7 4.691a5.174 5.174 0 11.013 10.35 5.174 5.174 0 01-.012-10.35zM7 2.86a7 7 0 100 14 7 7 0 000-14z" fill="url(#paint0_linear)"/><path d="M7 12.405a2.546 2.546 0 100-5.091 2.546 2.546 0 000 5.091z" fill="url(#paint1_linear)"/><path d="M7.903 10.76a1.273 1.273 0 10-1.8-1.8 1.273 1.273 0 001.8 1.8z" fill="#33AADA"/><path d="M11.503 7.16l-1.8-1.8-3.6 3.601 1.8 1.8 3.6-3.6z" fill="#33AADA"/><path d="M12.85 7.607L9.7 7.16l-.446-3.15L12.398.86l.33 3.27L16 4.464l-3.15 3.144z" fill="#33AADA"/><defs><linearGradient id="paint0_linear" x1="16.407" y1="-.425" x2="3.602" y2="13.576" gradientUnits="userSpaceOnUse"><stop stop-color="#665ED0"/><stop offset="1" stop-color="#0073B1"/></linearGradient><linearGradient id="paint1_linear" x1="16.407" y1="-.425" x2="3.602" y2="13.576" gradientUnits="userSpaceOnUse"><stop stop-color="#665ED0"/><stop offset="1" stop-color="#0073B1"/></linearGradient></defs></svg>