<svg width="14" height="16" fill="none" xmlns="http://www.w3.org/2000/svg"><path d="M7 5.338c-.461 0-.912-.14-1.296-.4a2.362 2.362 0 01-.86-1.063 2.403 2.403 0 01.506-2.582A2.3 2.3 0 017.893.779c.427.18.791.483 1.047.873a2.396 2.396 0 01-.29 2.992A2.315 2.315 0 017 5.338zm1.75 1.184h-3.5V16h3.5V6.522z" fill="url(#paint0_linear)"/><path d="M14 7.114h-3.5v8.293H14V7.114zm-10.5.001H0v8.293h3.5V7.115z" fill="#0091CA"/><defs><linearGradient id="paint0_linear" x1="-3.593" y1="-19.891" x2="7.683" y2="9.399" gradientUnits="userSpaceOnUse"><stop stop-color="#665ED0"/><stop offset="1" stop-color="#0073B1"/></linearGradient></defs></svg>