<svg width="18" height="16" fill="none" xmlns="http://www.w3.org/2000/svg"><path d="M7.615 5.462c1.53 0 2.769-1.223 2.769-2.73 0-1.51-1.24-2.732-2.77-2.732-1.529 0-2.768 1.223-2.768 2.731 0 1.508 1.24 2.731 2.769 2.731z" fill="#0073B1"/><path d="M15.838 3.728L4.963 14.455l1.267 1.25a.949.949 0 00.692.295.96.96 0 00.692-.296L17.797 5.661a.765.765 0 00.201-.547.604.604 0 00-.2-.416l-.977-.97a.693.693 0 00-.757-.15.693.693 0 00-.226.15z" fill="#0091CA"/><path opacity=".8" d="M8.881 14.454l-1.267 1.25a.936.936 0 01-.692.273.952.952 0 01-.692-.273L.2 9.757a.678.678 0 010-.963l.976-.962a.747.747 0 01.527-.198c.17.005.332.076.45.198l6.728 6.622z" fill="#33AADA"/><path d="M6.923 12.523L9.692 9.79V6.828H5.538v4.329l1.385 1.366z" fill="#0073B1"/></svg>