<svg width="17" height="16" fill="none" xmlns="http://www.w3.org/2000/svg"><path d="M17 12.667H0V14h17v-1.333z" fill="#0084BF"/><path fill-rule="evenodd" clip-rule="evenodd" d="M15.692 16H1.308C.588 16 0 15.4 0 14.667h17C17 15.4 16.412 16 15.692 16z" fill="#33AADA"/><path d="M8.5 9.334c1.805 0 3.269-1.493 3.269-3.334 0-1.84-1.464-3.333-3.27-3.333C6.695 2.667 5.23 4.159 5.23 6c0 1.841 1.464 3.334 3.27 3.334z" fill="url(#paint0_linear)"/><path fill-rule="evenodd" clip-rule="evenodd" d="M16.346 0H.654C.262 0 0 .267 0 .667v10.666c0 .4.262.667.654.667h15.692c.392 0 .654-.267.654-.667V.667c0-.4-.262-.667-.654-.667zm-.654 8c-1.242.467-2.157 1.467-2.615 2.667H3.923C3.465 9.4 2.485 8.467 1.308 8V4c1.242-.467 2.157-1.467 2.615-2.667h9.154c.458 1.267 1.438 2.2 2.615 2.667v4z" fill="url(#paint1_linear)"/><path fill-rule="evenodd" clip-rule="evenodd" d="M6.212 8.334c1.308 1.333 3.335 1.333 4.642 0a3.346 3.346 0 000-4.733L6.212 8.334z" fill="#0084BF"/><defs><linearGradient id="paint0_linear" x1="9.694" y1="7.414" x2="6.286" y2="3.532" gradientUnits="userSpaceOnUse"><stop stop-color="#1074AF"/><stop offset="1" stop-color="#5251C0"/></linearGradient><linearGradient id="paint1_linear" x1="12.057" y1="10.212" x2="1.906" y2="-1.351" gradientUnits="userSpaceOnUse"><stop stop-color="#1074AF"/><stop offset="1" stop-color="#5251C0"/></linearGradient></defs></svg>