<svg width="21" height="16" fill="none" xmlns="http://www.w3.org/2000/svg"><path fill-rule="evenodd" clip-rule="evenodd" d="M9.332 9.908h2.799c2.4 0 5.427-.616 6.912-.985V1.846C19.043.8 18.3 0 17.329 0H3.62c-.97 0-1.713.8-1.713 1.846v7.077c1.485.37 4.513.985 6.912.985h.514z" fill="#CAEDFF"/><path d="M6.475 8C7.737 8 8.76 6.898 8.76 5.54c0-1.36-1.023-2.462-2.285-2.462-1.262 0-2.285 1.102-2.285 2.462S5.213 8 6.475 8z" fill="#0091CA"/><path d="M14.472 8c1.262 0 2.285-1.102 2.285-2.461 0-1.36-1.023-2.462-2.285-2.462-1.261 0-2.284 1.102-2.284 2.462S13.21 8 14.471 8z" fill="url(#paint0_linear)"/><path d="M20.414 10.461l-.343-1.23c-.114-.308-.4-.493-.686-.431-1.085.246-3.713.861-6.112 1.046v3.015c0 .493-.228.862-.57 1.108v1.415c0 .37.228.616.57.616h2.857c.342 0 .57-.246.57-.616v-3.507c1.372-.246 2.571-.431 3.257-.616.4-.061.57-.43.457-.8z" fill="#2569B4"/><path d="M11.617 9.908h-2.8c-2.627 0-6.054-.738-7.31-1.046-.286-.062-.572.123-.686.43l-.343 1.231c-.114.37.114.739.457.8.685.123 1.885.37 3.256.616v3.446c0 .369.228.615.571.615h2.856c.343 0 .571-.246.571-.615v-3.077h3.428c.342 0 .57-.246.57-.615v-1.17c0-.369-.228-.615-.57-.615z" fill="#0091CA"/><defs><linearGradient id="paint0_linear" x1="13.492" y1="2.163" x2="16.805" y2="11.987" gradientUnits="userSpaceOnUse"><stop stop-color="#665ED0"/><stop offset="1" stop-color="#0073B1"/></linearGradient></defs></svg>